<?xml version="1.0" encoding="UTF-8" standalone="no"?>
<svg
   xmlns:dc="http://purl.org/dc/elements/1.1/"
   xmlns:cc="http://creativecommons.org/ns#"
   xmlns:rdf="http://www.w3.org/1999/02/22-rdf-syntax-ns#"
   xmlns:svg="http://www.w3.org/2000/svg"
   xmlns="http://www.w3.org/2000/svg"
   xmlns:sodipodi="http://sodipodi.sourceforge.net/DTD/sodipodi-0.dtd"
   xmlns:inkscape="http://www.inkscape.org/namespaces/inkscape"
   version="1.0"
   height="380"
   width="260"
   id="svg4954"
   inkscape:version="0.91 r13725"
   sodipodi:docname="beer.svg">
  <sodipodi:namedview
     pagecolor="#ffffff"
     bordercolor="#666666"
     borderopacity="1"
     objecttolerance="10"
     gridtolerance="10"
     guidetolerance="10"
     inkscape:pageopacity="0"
     inkscape:pageshadow="2"
     inkscape:window-width="906"
     inkscape:window-height="1014"
     id="namedview26"
     showgrid="false"
     inkscape:zoom="0.62105263"
     inkscape:cx="-138.09322"
     inkscape:cy="190"
     inkscape:window-x="0"
     inkscape:window-y="19"
     inkscape:window-maximized="0"
     inkscape:current-layer="svg4954" />
  <metadata
     id="metadata4959">
    <rdf:RDF>
      <cc:Work
         rdf:about="">
        <dc:format>image/svg+xml</dc:format>
        <dc:type
           rdf:resource="http://purl.org/dc/dcmitype/StillImage" />
        <dc:title />
      </cc:Work>
    </rdf:RDF>
  </metadata>
  <defs
     id="defs4957" />
  <g
     transform="matrix(0.5290346,0,0,0.5290346,-325.39848,-164.41227)"
     id="g3958">
    <g
       id="g3207"
       transform="translate(450.1644,178.0833)">
      <path
         style="fill:#ffffd5;fill-opacity:1;fill-rule:evenodd;stroke:#000000;stroke-width:6.09999895;stroke-linecap:butt;stroke-linejoin:miter;stroke-miterlimit:4;stroke-dasharray:none;stroke-opacity:1"
         d="m 438.16891,353.3262 c -31.14023,0.48391 -39.20432,40.76994 -18.5405,60.02237 15.48711,22.32854 44.70974,13.92901 66.15361,7.29217 23.83853,-7.56916 59.33128,-15.30433 73.09959,12.72482 22.78013,45.11629 17.73162,102.48187 -7.79733,145.41571 -13.45616,29.12619 -49.13753,23.65265 -71.47627,9.31831 -19.91921,-9.06777 -47.79681,-29.58452 -67.13131,-8.60749 -25.69864,24.95989 -17.61342,72.18343 13.59589,88.89673 29.32957,20.23026 66.85152,45.83967 103.40782,28.51475 33.68726,-18.99994 48.37773,-57.87285 62.63367,-91.72427 23.30408,-65.74978 35.3905,-140.92752 9.6585,-207.77535 -13.26132,-35.74838 -52.19183,-53.75622 -88.52979,-52.46822 -25.2864,-0.38838 -50.17573,4.71539 -75.07388,8.39047 z"
         id="path3209"
         inkscape:connector-curvature="0" />
      <path
         style="fill:#c8c994;fill-opacity:1;fill-rule:evenodd;stroke:none;stroke-width:1px;stroke-linecap:butt;stroke-linejoin:miter;stroke-opacity:1"
         d="m 566.05798,432.58344 c -5.61612,-14.74036 -23.16067,-38.30762 -17.01697,-49.51086 25.12296,28.16064 43.97919,64.44574 42.63959,103.09651 -0.78818,38.85735 -6.3669,79.75375 -26.61747,113.54569 -6.97914,12.29284 -47.71352,32.96074 -26.8927,4.75416 22.31438,-26.3438 43.79344,-56.17097 45.28868,-92.07607 2.26899,-27.60938 -4.87802,-55.31518 -17.40113,-79.80943 z"
         id="path3211"
         inkscape:connector-curvature="0" />
    </g>
    <g
       id="g3213"
       transform="translate(-186.209,35.46674)">
      <path
         id="path3215"
         d="m 852.55954,430.21215 c 91.97155,6.78013 185.53466,22.29227 277.17446,4.54653 16.373,-4.75628 32.7625,-13.1113 26.3711,11.09983 -1.3912,149.505 -3.6501,299.34362 8.6779,448.49143 -15.6223,21.01609 -48.7312,16.3903 -72.7328,20.10699 -71.0337,2.54366 -143.43712,-0.27015 -212.27907,-19.26787 -30.66427,-3.66275 -43.66038,-30.35781 -33.68057,-58.21127 11.29205,-135.19989 13.5883,-271.2785 6.46898,-406.76564 z"
         style="fill:#000000;fill-opacity:1;fill-rule:evenodd;stroke:#000000;stroke-width:7.88213062;stroke-linecap:butt;stroke-linejoin:miter;stroke-miterlimit:4;stroke-dasharray:none;stroke-opacity:1"
         inkscape:connector-curvature="0" />
      <path
         style="fill:#f4b133;fill-opacity:1;fill-rule:nonzero;stroke:none;stroke-width:7.625;stroke-miterlimit:4;stroke-opacity:1"
         d="m 1130.5176,873.564 c -52.1469,33.1182 -264.72767,8.6788 -266.11627,-29.9584 -0.872,-67.3566 1.6842,-286.0182 13.4312,-351.82091 -20.05338,-53.98055 156.75987,-6.89178 258.65567,-22.46255 -42.5896,66.06096 19.8197,264.83016 -5.9706,404.24186 z"
         id="path3217"
         inkscape:connector-curvature="0" />
      <path
         id="path3219"
         d="m 1140.3121,436.25185 c -4.3802,0.0405 -10.2287,1.85339 -17.375,4.96875 -89.1792,17.0691 -180.19304,2.14568 -269.68755,-4.375 6.93765,130.3192 4.69014,261.1827 -6.28125,391.2188 -9.79452,26.9947 3.20262,52.5568 32.78125,56 67.02214,18.28 137.42415,20.9749 206.53135,18.5312 23.3422,-3.5982 55.4254,0.9289 70.75,-19.3437 -11.8403,-141.3881 -9.811,-283.4488 -8.5,-425.18755 3.2027,-15.58627 0.1431,-21.88977 -8.2188,-21.8125 z M 908.4683,478.0956 c 0.47625,0.0106 0.96791,0.0536 1.46875,0.125 11.84149,12.3747 13.5981,34.5595 17.0625,52.9063 6.38762,46.1654 7.4374,93.4584 6.5625,140.4062 -1.78543,56.4041 -4.8026,113.9813 -19.25,167.7188 -1.91011,17.3551 -19.40385,37.0686 -26.40625,13.3437 -12.84503,-37.3673 -14.04845,-79.7351 -16.09375,-120.2812 -1.69692,-70.6697 0.73755,-142.4251 14.28125,-211.3438 4.44616,-14.992 7.61135,-43.20273 22.375,-42.875 z m 85.62505,7.8125 c 0.4762,0.002 0.9666,0.0318 1.4687,0.0937 12.07155,12.15045 14.25465,34.31515 18.06255,52.59375 7.2521,46.0375 9.1817,93.3252 9.1875,140.2813 -0.7273,56.4275 -2.6568,114.0323 -16.0937,168.0312 -1.5843,17.3879 -18.71025,37.4018 -26.15635,13.8125 -13.54358,-37.1198 -15.53845,-79.4058 -18.34375,-119.9062 -3.02203,-70.6252 -1.9362,-142.4333 10.3125,-211.5938 4.1643,-15.0726 6.79528,-43.36328 21.56255,-43.3125 z m 82.68755,2.96875 c 0.4762,-0.005 0.9656,0.0393 1.4687,0.0937 12.2513,11.969 14.7636,34.0614 18.8437,52.2813 7.9381,45.9241 10.5438,93.1744 11.25,140.125 0.1144,56.432 -0.9324,114.0565 -13.5624,168.25 -1.325,17.4095 -18.1405,37.7257 -25.9376,14.25 -14.0957,-36.9137 -16.7159,-79.202 -20.125,-119.6563 -4.0752,-70.5724 -4.0595,-142.3832 7.1563,-211.7187 3.939,-15.1332 6.1398,-43.45557 20.9063,-43.62505 z"
         style="fill:#f4ca33;fill-opacity:1;fill-rule:evenodd;stroke:#000000;stroke-width:7.62499857;stroke-linecap:butt;stroke-linejoin:miter;stroke-miterlimit:4;stroke-dasharray:none;stroke-opacity:1"
         inkscape:connector-curvature="0" />
      <path
         style="fill:#f4e382;fill-opacity:1;fill-rule:nonzero;stroke:none;stroke-width:7.625;stroke-miterlimit:4;stroke-opacity:1"
         d="m 899.02576,665.5424 c -1.0428,33.5347 -2.5243,67.7753 -7.9915,99.9237 -0.7985,10.3397 -7.0774,22.3253 -9.36,8.341 -4.2327,-21.9975 -4.3447,-47.1326 -4.7634,-71.1872 -0.0742,-41.9548 1.3079,-84.6313 6.5699,-125.784 1.7252,-9.2662 3.065,-26.8288 8.6676,-25.7841 4.0169,6.9615 4.4915,19.8703 5.5676,30.4992 1.9147,26.8858 1.9567,54.5619 1.3577,82.0355"
         id="path3221"
         inkscape:connector-curvature="0" />
      <path
         style="fill:#f4e382;fill-opacity:1;fill-rule:nonzero;stroke:none;stroke-width:7.625;stroke-miterlimit:4;stroke-opacity:1"
         d="m 988.36095,673.5714 c -0.41372,33.5484 -1.25282,67.8107 -6.11612,100.056 -0.6044,10.3528 -6.6574,22.4541 -9.2019,8.515 -4.6444,-21.9142 -5.2278,-47.0428 -6.0976,-71.0852 -0.8609,-41.9461 -0.2795,-84.641 4.2098,-125.8852 1.5511,-9.2969 2.5613,-26.8815 8.1825,-25.9421 4.1467,6.885 4.8633,19.7826 6.1386,30.3895 2.4185,26.8451 2.97962,54.5156 2.89592,81.9955"
         id="path3223"
         inkscape:connector-curvature="0" />
      <path
         style="fill:#f4e382;fill-opacity:1;fill-rule:nonzero;stroke:none;stroke-width:7.625;stroke-miterlimit:4;stroke-opacity:1"
         d="m 1073.9885,676.6514 c 0.087,33.5508 -0.2413,67.8218 -4.6231,100.1361 -0.4499,10.3607 -6.3217,22.5509 -9.0738,8.6513 -4.9708,-21.8425 -5.9289,-46.9596 -7.1573,-70.9864 -1.4865,-41.9286 -1.542,-84.6274 2.3317,-125.9339 1.4123,-9.319 2.16,-26.9168 7.7946,-26.0613 4.2491,6.8224 5.158,19.7079 6.5913,30.2946 2.8187,26.806 3.7923,54.465 4.1186,81.9432"
         id="path3225"
         inkscape:connector-curvature="0" />
    </g>
    <g
       id="g3227"
       transform="translate(-341.4024,176.7325)">
      <path
         id="path3229"
         d="m 1190.2011,145.53741 c -10.9615,0.15374 -21.6488,5.67118 -29.4688,14.53125 -10.9934,3.56901 -20.7531,12.27921 -26.3437,23.84375 -0.9507,1.46456 -1.8554,2.98067 -2.6563,4.5625 -0.02,0.0119 -0.042,0.0194 -0.062,0.0312 -3.4423,-0.17368 -6.8766,0.1887 -10.2187,1.03125 -4.107,-4.00785 -8.8574,-7.16046 -14.0313,-9.09375 -19.1157,-8.11008 -40.7123,3.30728 -50.2187,22.96875 -2.6596,4.09717 -4.7485,8.69589 -6.125,13.625 -14.8983,0.34835 -29.2294,10.55634 -36.5,25.59375 -3.7468,5.77207 -6.4083,12.49763 -7.4688,19.8125 -4.0097,19.47634 3.7569,40.49337 17.25,52.40625 -0.3095,1.33574 -0.5812,2.68264 -0.7812,4.0625 -5.5736,27.07253 11.5605,57.1284 35.2812,61.5625 2.8711,2.37828 6.0692,4.38141 9.4688,5.9375 0.6895,1.14291 1.3948,2.26533 2.1562,3.34375 0.1396,0.32606 0.2872,0.64831 0.4375,0.96875 5.0893,15.33593 21.9796,25.40325 37.9688,23.0625 4.2412,-0.42037 8.3479,-1.72142 12.0937,-3.6875 0.5609,0.0598 1.1204,0.12552 1.6875,0.15625 11.7949,1.35374 22.9794,-3.96229 31.2813,-12.9375 15.2647,0.21606 29.1123,-10.46772 36.5,-25.4375 1.2725,-1.96956 2.417,-4.0304 3.4375,-6.1875 2.0636,0.52514 4.1806,0.85153 6.3437,0.96875 14.8584,1.70535 28.7373,-7.1364 37.125,-20.59375 3.9848,-3.92072 7.3643,-8.67018 9.9688,-13.9375 4.9388,-7.63308 8.076,-16.82131 8.5937,-26.4375 0.5609,0.0598 1.1204,0.12552 1.6875,0.15625 7.6787,0.8813 15.094,-1.06277 21.625,-5 15.0914,0.007 28.7456,-10.6422 36.0625,-25.46875 5.9959,-9.28025 9.3382,-20.84272 8.5313,-32.6875 l -0.031,-0.875 c -0.8402,-20.41493 -13.0718,-39.69412 -30.0312,-46.03125 -10.5692,-4.48411 -21.906,-2.98894 -31.5313,2.5625 -0.2627,0.005 -0.5188,0.0205 -0.7812,0.0312 -4.5555,-5.04162 -10.0254,-8.98247 -16.0938,-11.25 -4.2504,-1.8033 -8.6326,-2.62954 -12.9687,-2.625 -3.6351,-16.57829 -14.5438,-31.02372 -28.7813,-36.34375 -4.3927,-1.86369 -8.9276,-2.68782 -13.4062,-2.625 z"
         style="fill:#000000;fill-opacity:1;fill-rule:nonzero;stroke:#000000;stroke-width:3.78308296;stroke-miterlimit:4;stroke-opacity:1"
         inkscape:connector-curvature="0" />
      <path
         id="path3231"
         d="m 1188.2049,152.49845 c -10.957,0.15368 -21.6183,5.67751 -29.4375,14.53125 -10.9963,3.56757 -20.7832,12.27674 -26.375,23.84375 -0.9507,1.46456 -1.8241,2.98067 -2.625,4.5625 -0.02,0.0117 -0.043,0.0195 -0.062,0.0312 -3.4418,-0.17691 -6.8766,0.1919 -10.2188,1.03125 -4.1107,-4.01539 -8.8506,-7.15793 -14.0312,-9.09375 -19.1049,-8.1055 -40.7041,3.32765 -50.2188,22.96875 -2.6657,4.10287 -4.7778,8.68717 -6.1562,13.625 -14.8785,0.34789 -29.189,10.55782 -36.4688,25.5625 -3.7622,5.78209 -6.4367,12.50985 -7.5,19.84375 -4.0112,19.4839 3.7472,40.52707 17.25,52.4375 -0.3075,1.32937 -0.5821,2.68947 -0.7812,4.0625 -5.5736,27.07253 11.5605,57.09716 35.2812,61.53125 2.8826,2.39027 6.0844,4.37678 9.5,5.9375 0.6885,1.14103 1.3648,2.26702 2.125,3.34375 0.1357,0.317 0.2917,0.6258 0.4375,0.9375 5.0778,15.35197 21.9697,25.43596 37.9688,23.09375 4.2412,-0.42037 8.3479,-1.72141 12.0937,-3.6875 0.5711,0.0614 1.1412,0.12495 1.7188,0.15625 11.7948,1.35374 22.9481,-3.96228 31.25,-12.9375 15.252,0.21588 29.0765,-10.456 36.4687,-25.40625 1.2801,-1.9784 2.4432,-4.05083 3.4688,-6.21875 2.0636,0.52514 4.1806,0.88278 6.3437,1 14.8582,1.70533 28.7373,-7.16795 37.125,-20.625 3.9848,-3.92072 7.3643,-8.67019 9.9688,-13.9375 4.9408,-7.63609 8.0778,-16.81718 8.5937,-26.4375 0.5609,0.0598 1.1204,0.12552 1.6875,0.15625 7.6787,0.8813 15.094,-1.06277 21.625,-5 15.1435,0.007 28.858,-10.71852 36.1563,-25.625 5.9338,-9.25417 9.2712,-20.75187 8.4687,-32.53125 l -0.062,-0.875 c -0.8402,-20.41493 -13.0718,-39.69412 -30.0312,-46.03125 -10.5692,-4.48411 -21.906,-2.98894 -31.5313,2.5625 -0.2485,0.005 -0.5017,0.0211 -0.75,0.0312 -4.5582,-5.04915 -10.0503,-8.98013 -16.125,-11.25 -4.2587,-1.80683 -8.6242,-2.63285 -12.9687,-2.625 -3.6351,-16.57829 -14.5438,-31.02372 -28.7813,-36.34375 -4.3927,-1.86369 -8.9276,-2.68781 -13.4062,-2.625 z"
         style="fill:#ffffff;fill-opacity:1;fill-rule:nonzero;stroke:none;stroke-width:3.78308296;stroke-miterlimit:4;stroke-opacity:1"
         inkscape:connector-curvature="0" />
      <g
         transform="translate(-190.0124,-191.0072)"
         id="g3233">
        <path
           style="fill:#000000;fill-opacity:1;fill-rule:nonzero;stroke:#000000;stroke-width:1.46772707;stroke-miterlimit:4;stroke-opacity:1"
           d="m 1288.7076,526.67603 c -4.8604,-2e-5 -9.7181,0.9914 -14.1875,3.03125 -14.655,5.97391 -23.8735,23.01752 -19.8125,38.5 0.5019,2.23523 1.2575,4.38078 2.2187,6.40625 -0.3314,-0.98454 -0.6445,-2.00469 -0.875,-3.03125 -4.061,-15.48247 5.1888,-32.52609 19.8438,-38.5 15.8914,-7.25278 36.6488,-0.99463 45.25,14.375 0.5231,0.89793 0.9719,1.83769 1.4062,2.78125 -0.7096,-2.13822 -1.6465,-4.20841 -2.7812,-6.15625 -6.1821,-11.04692 -18.6417,-17.40619 -31.0625,-17.40625 z"
           id="path3235"
           inkscape:connector-curvature="0" />
        <path
           style="fill:#000000;fill-opacity:1;fill-rule:nonzero;stroke:#000000;stroke-width:1.69773364;stroke-miterlimit:4;stroke-opacity:1"
           d="m 1329.4881,393.68859 c -5.622,-3e-5 -11.2364,1.10924 -16.4063,3.46875 -16.9514,6.91007 -27.635,26.65382 -22.9375,44.5625 0.5711,2.54281 1.4145,4.97276 2.5,7.28125 -0.3678,-1.10452 -0.6792,-2.22496 -0.9375,-3.375 -4.6974,-17.90867 5.9861,-37.62118 22.9375,-44.53125 18.3818,-8.38935 42.3636,-1.1532 52.3125,16.625 0.5961,1.02316 1.1286,2.0818 1.625,3.15625 -0.8188,-2.45686 -1.883,-4.82345 -3.1875,-7.0625 -7.1508,-12.77808 -21.539,-20.12493 -35.9062,-20.125 z"
           id="path3237"
           inkscape:connector-curvature="0" />
        <path
           style="fill:#000000;fill-opacity:1;fill-rule:nonzero;stroke:#000000;stroke-width:1.69773364;stroke-miterlimit:4;stroke-opacity:1"
           d="m 1321.7188,448.90625 c -5.6221,-2e-5 -11.2365,1.1405 -16.4063,3.5 -16.9514,6.91008 -27.635,26.62255 -22.9375,44.53125 0.5689,2.53351 1.4515,4.94904 2.5313,7.25 -0.3641,-1.09588 -0.7127,-2.20309 -0.9688,-3.34375 -4.6975,-17.90868 5.9861,-37.62118 22.9375,-44.53125 12.0499,-5.49948 26.5023,-4.3103 37.8438,2.1875 0.2478,-0.80016 0.5138,-1.59153 0.8125,-2.375 -6.9859,-4.66902 -15.3851,-7.21871 -23.8125,-7.21875 z"
           id="path3239"
           inkscape:connector-curvature="0" />
        <path
           style="fill:#000000;fill-opacity:1;fill-rule:nonzero;stroke:#000000;stroke-width:1.69773364;stroke-miterlimit:4;stroke-opacity:1"
           d="m 1379.8887,434.78819 c -5.622,-3e-5 -11.2364,1.10924 -16.4062,3.46875 -16.9514,6.91007 -27.635,26.62253 -22.9375,44.53125 0.5783,2.57533 1.4257,5.04031 2.5312,7.375 -0.3761,-1.12282 -0.706,-2.29877 -0.9687,-3.46875 -4.6975,-17.90871 5.9861,-37.62118 22.9375,-44.53125 18.3818,-8.38935 42.3948,-1.12195 52.3437,16.65625 0.5813,0.99774 1.076,2.01588 1.5625,3.0625 -0.8156,-2.43147 -1.8332,-4.78265 -3.125,-7 -7.1508,-12.77808 -21.5702,-20.09368 -35.9375,-20.09375 z"
           id="path3241"
           inkscape:connector-curvature="0" />
        <path
           style="fill:#000000;fill-opacity:1;fill-rule:nonzero;stroke:#000000;stroke-width:1.29898274;stroke-miterlimit:4;stroke-opacity:1"
           d="m 1363.357,503.6787 c -4.3016,-2e-5 -8.607,0.88217 -12.5625,2.6875 -12.9701,5.28708 -21.1255,20.36007 -17.5313,34.0625 0.4385,1.95272 1.0713,3.8217 1.9063,5.59375 -0.2822,-0.84663 -0.5208,-1.71215 -0.7188,-2.59375 -3.5942,-13.70246 4.5925,-28.77542 17.5625,-34.0625 14.0643,-6.41892 32.419,-0.88384 40.0313,12.71875 0.4497,0.77196 0.8431,1.56484 1.2187,2.375 -0.6246,-1.86468 -1.4157,-3.67476 -2.4062,-5.375 -5.4713,-9.77686 -16.5073,-15.4062 -27.5,-15.40625 z"
           id="path3243"
           inkscape:connector-curvature="0" />
        <path
           style="fill:#000000;fill-opacity:1;fill-rule:nonzero;stroke:#000000;stroke-width:1.69773364;stroke-miterlimit:4;stroke-opacity:1"
           d="m 1277.6698,474.45745 c -5.622,-3e-5 -11.2365,1.1405 -16.4063,3.5 -16.9515,6.91007 -27.6352,26.62256 -22.9375,44.53125 0.5689,2.5335 1.4515,4.94904 2.5313,7.25 -0.364,-1.09589 -0.7127,-2.20309 -0.9688,-3.34375 -4.6976,-17.90868 5.986,-37.62118 22.9375,-44.53125 5.7103,-2.60618 11.9505,-3.72806 18.1563,-3.46875 0.5725,-1.23315 1.2432,-2.42295 1.9375,-3.59375 -1.7417,-0.21758 -3.4964,-0.34374 -5.25,-0.34375 z"
           id="path3245"
           inkscape:connector-curvature="0" />
      </g>
    </g>
  </g>
</svg>
