<?xml version="1.0" encoding="UTF-8" standalone="no"?>
<svg
   xmlns:dc="http://purl.org/dc/elements/1.1/"
   xmlns:cc="http://creativecommons.org/ns#"
   xmlns:rdf="http://www.w3.org/1999/02/22-rdf-syntax-ns#"
   xmlns:svg="http://www.w3.org/2000/svg"
   xmlns="http://www.w3.org/2000/svg"
   version="1.1"
   id="svg2"
   viewBox="0 0 200 200"
   height="200"
   width="200">
  <defs
     id="defs4" />
  <metadata
     id="metadata7">
    <rdf:RDF>
      <cc:Work
         rdf:about="">
        <dc:format>image/svg+xml</dc:format>
        <dc:type
           rdf:resource="http://purl.org/dc/dcmitype/StillImage" />
        <dc:title></dc:title>
      </cc:Work>
    </rdf:RDF>
  </metadata>
  <g
     transform="translate(0,-852.36216)"
     id="layer1">
    <rect
       y="892.36212"
       x="0"
       height="60"
       width="200"
       id="rect4140"
       style="opacity:1;fill:#000000;fill-opacity:1;stroke:none;stroke-width:7.19999981;stroke-miterlimit:4;stroke-dasharray:3.6, 3.6;stroke-dashoffset:0;stroke-opacity:1" />
    <g
       id="text3336"
       style="font-style:normal;font-variant:normal;font-weight:normal;font-stretch:normal;font-size:94.54824066px;line-height:125%;font-family:'Geometr415 Lt BT';-inkscape-font-specification:'Geometr415 Lt BT';letter-spacing:0px;word-spacing:0px;fill:#ffffff;fill-opacity:1;stroke:none;stroke-width:1px;stroke-linecap:butt;stroke-linejoin:miter;stroke-opacity:1"
       transform="matrix(0,1,-1,0,0,0)">
      <path
         id="path4162"
         style="font-style:normal;font-variant:normal;font-weight:normal;font-stretch:normal;font-family:'DejaVu Sans';-inkscape-font-specification:'DejaVu Sans';fill:#ffffff;fill-opacity:1"
         d="m 922.13911,-97.318413 q -6.64792,0 -10.47971,3.554793 -3.78562,3.554792 -3.78562,9.78722 0,6.232428 3.78562,9.78722 3.83179,3.554792 10.47971,3.554792 6.64793,0 10.47972,-3.554792 3.83178,-3.600958 3.83178,-9.78722 0,-6.232428 -3.83178,-9.78722 -3.78563,-3.554793 -10.47972,-3.554793 z m -9.32556,-3.970287 q -6.00159,-1.47732 -9.37172,-5.5861 -3.32396,-4.10879 -3.32396,-10.01805 0,-8.26374 5.8631,-13.06502 5.90926,-4.80128 16.15814,-4.80128 10.29505,0 16.15815,4.80128 5.8631,4.80128 5.8631,13.06502 0,5.90926 -3.37013,10.01805 -3.32396,4.10878 -9.27939,5.5861 6.74025,1.569649 10.47971,6.140096 3.78562,4.570447 3.78562,11.172204 0,10.018051 -6.14009,15.373322 -6.09393,5.355272 -17.49697,5.355272 -11.40303,0 -17.54313,-5.355272 -6.09393,-5.355271 -6.09393,-15.373322 0,-6.601757 3.78563,-11.172204 3.78562,-4.570447 10.52587,-6.140096 z m -3.41629,-14.727 q 0,5.35527 3.32396,8.35607 3.37013,3.0008 9.41789,3.0008 6.0016,0 9.37173,-3.0008 3.41629,-3.0008 3.41629,-8.35607 0,-5.35527 -3.41629,-8.35607 -3.37013,-3.0008 -9.37173,-3.0008 -6.04776,0 -9.41789,3.0008 -3.32396,3.0008 -3.32396,8.35607 z" />
    </g>
  </g>
</svg>
